<svg id="svg" version="1.1" xmlns="http://www.w3.org/2000/svg" xmlns:xlink="http://www.w3.org/1999/xlink" width="400" height="313.3333333333333" viewBox="0, 0, 400,313.3333333333333"><g id="svgg"><path id="path0" d="M63.442 53.120 C 63.346 53.370,63.372 53.745,63.500 53.952 C 63.641 54.179,63.601 54.247,63.400 54.123 C 62.862 53.790,62.069 54.249,62.069 54.892 C 62.069 55.252,61.849 55.486,61.511 55.486 C 61.204 55.486,60.750 55.768,60.502 56.113 C 60.253 56.458,59.869 56.740,59.649 56.740 C 58.915 56.740,56.740 59.201,56.740 60.031 C 56.740 60.606,56.573 60.815,56.113 60.815 C 55.695 60.815,55.486 61.024,55.486 61.442 C 55.486 61.869,55.277 62.069,54.830 62.069 C 54.448 62.069,54.108 62.319,54.017 62.666 C 53.918 63.044,53.475 63.336,52.810 63.461 C 52.152 63.584,51.686 63.888,51.564 64.274 C 51.456 64.613,51.127 64.890,50.832 64.890 C 50.537 64.890,50.092 65.172,49.843 65.517 C 49.583 65.879,49.032 66.144,48.541 66.144 C 47.983 66.144,47.627 66.348,47.503 66.737 C 47.399 67.064,47.037 67.403,46.698 67.492 C 46.265 67.605,46.082 67.922,46.082 68.553 C 46.082 69.094,45.831 69.635,45.455 69.906 C 44.995 70.237,44.828 70.717,44.828 71.702 C 44.828 72.659,45.008 73.202,45.455 73.584 C 45.799 73.879,46.082 74.371,46.082 74.678 C 46.082 75.026,46.317 75.235,46.708 75.235 C 47.124 75.235,47.335 75.444,47.335 75.856 C 47.335 76.252,47.611 76.546,48.096 76.668 C 48.515 76.773,48.929 77.045,49.016 77.271 C 49.103 77.498,49.642 77.787,50.214 77.912 C 50.786 78.038,51.438 78.404,51.664 78.726 C 51.902 79.066,52.450 79.310,52.975 79.310 C 53.601 79.310,53.937 79.502,54.075 79.937 C 54.185 80.282,54.547 80.564,54.880 80.564 C 55.270 80.564,55.486 80.780,55.486 81.170 C 55.486 81.503,55.768 81.865,56.113 81.975 C 56.458 82.084,56.740 82.447,56.740 82.780 C 56.740 83.637,59.153 85.893,60.069 85.893 C 60.606 85.893,60.815 86.069,60.815 86.520 C 60.815 86.865,61.016 87.147,61.261 87.147 C 61.507 87.147,62.127 87.500,62.639 87.931 C 63.904 88.996,69.906 89.155,69.906 88.124 C 69.906 87.798,70.186 87.461,70.531 87.370 C 70.875 87.280,71.254 86.947,71.373 86.629 C 71.492 86.310,71.845 85.865,72.159 85.640 C 73.206 84.886,72.822 80.927,71.581 79.686 C 71.349 79.455,71.160 79.074,71.160 78.839 C 71.160 78.604,70.864 78.318,70.502 78.203 C 70.140 78.088,69.576 77.726,69.248 77.399 C 68.920 77.071,68.370 76.803,68.025 76.803 C 67.607 76.803,67.398 76.594,67.398 76.176 C 67.398 75.614,66.895 75.371,66.043 75.519 C 65.900 75.544,65.871 75.424,65.977 75.252 C 66.213 74.871,65.307 73.041,64.882 73.041 C 64.714 73.041,64.577 72.830,64.577 72.573 C 64.577 72.316,64.305 71.936,63.972 71.728 C 63.359 71.345,64.471 69.355,65.744 68.558 C 65.964 68.420,66.144 68.119,66.144 67.889 C 66.144 67.659,66.426 67.397,66.771 67.307 C 67.116 67.217,67.398 66.935,67.398 66.680 C 67.398 66.426,67.680 66.144,68.025 66.053 C 68.400 65.955,68.652 65.626,68.652 65.233 C 68.652 64.627,69.071 64.425,70.087 64.541 C 70.273 64.562,70.908 63.980,71.498 63.246 C 73.139 61.206,73.247 54.232,71.638 54.232 C 71.375 54.232,71.160 54.025,71.160 53.773 C 71.160 52.647,63.860 52.029,63.442 53.120 M88.558 63.551 C 87.523 63.811,87.471 64.165,87.466 70.914 C 87.461 77.024,87.497 77.427,88.069 77.733 C 88.871 78.162,244.773 78.177,245.455 77.748 C 245.981 77.417,246.177 64.254,245.664 63.741 C 245.389 63.466,89.643 63.279,88.558 63.551 M87.533 98.041 L 87.618 104.545 127.639 104.627 C 163.788 104.701,167.708 104.661,168.156 104.213 C 168.574 103.795,168.652 102.763,168.652 97.627 L 168.652 91.536 128.050 91.536 L 87.448 91.536 87.533 98.041 M88.009 116.831 C 87.035 117.085,87.186 129.702,88.166 129.939 C 88.554 130.032,137.680 130.070,197.335 130.023 L 305.799 129.937 305.900 129.232 C 305.964 128.775,306.216 128.527,306.612 128.527 C 307.200 128.527,307.221 128.301,307.139 122.820 L 307.053 117.112 306.270 116.895 C 305.420 116.659,88.912 116.596,88.009 116.831 M328.306 132.818 C 327.927 132.894,327.534 133.213,327.434 133.528 C 327.334 133.844,326.975 134.174,326.635 134.263 C 325.679 134.513,325.688 141.665,326.646 141.915 C 326.991 142.006,327.273 142.330,327.273 142.637 C 327.273 142.944,327.623 143.527,328.051 143.933 C 328.479 144.339,328.832 144.846,328.835 145.060 C 328.838 145.274,329.122 145.625,329.467 145.841 C 329.812 146.056,330.094 146.410,330.094 146.627 C 330.094 146.844,330.236 147.022,330.410 147.022 C 330.583 147.022,331.032 147.375,331.407 147.806 C 331.781 148.237,332.274 148.589,332.502 148.589 C 332.729 148.589,332.915 148.729,332.915 148.899 C 332.915 149.185,334.727 150.525,336.094 151.250 C 336.865 151.659,336.839 152.549,336.050 152.755 C 335.675 152.854,335.423 153.183,335.423 153.576 C 335.423 154.023,335.224 154.232,334.796 154.232 C 334.378 154.232,334.169 154.441,334.169 154.859 C 334.169 155.370,333.960 155.486,333.043 155.486 C 331.957 155.486,331.040 155.996,329.317 157.556 C 328.917 157.919,328.364 158.303,328.088 158.409 C 327.812 158.514,327.586 158.817,327.586 159.081 C 327.586 159.347,327.315 159.561,326.980 159.561 C 326.647 159.561,326.285 159.843,326.176 160.188 C 326.066 160.533,325.771 160.815,325.520 160.815 C 325.268 160.815,324.936 161.148,324.781 161.556 C 324.626 161.964,324.277 162.382,324.005 162.487 C 323.169 162.808,323.289 168.339,324.138 168.561 C 324.485 168.652,324.765 168.989,324.765 169.316 C 324.765 169.640,324.906 169.924,325.078 169.945 C 325.251 169.967,325.533 170.002,325.705 170.024 C 325.878 170.045,326.031 170.204,326.045 170.376 C 326.155 171.664,332.593 171.923,333.815 170.690 C 334.157 170.345,334.937 169.710,335.548 169.279 C 336.160 168.848,336.664 168.257,336.668 167.966 C 336.675 167.582,337.001 167.409,337.853 167.339 C 338.778 167.262,339.049 167.098,339.124 166.570 C 339.192 166.090,339.385 165.942,339.799 166.050 C 340.185 166.151,340.445 165.993,340.576 165.579 C 340.702 165.183,341.163 164.883,341.843 164.756 C 342.490 164.634,342.984 164.326,343.096 163.973 C 343.198 163.653,343.558 163.318,343.898 163.229 C 344.237 163.141,344.514 162.843,344.514 162.569 C 344.514 162.284,344.775 162.069,345.120 162.069 C 345.453 162.069,345.815 161.787,345.925 161.442 C 346.034 161.097,346.264 160.815,346.434 160.815 C 346.746 160.815,348.836 159.256,349.901 158.229 C 350.214 157.927,350.611 157.680,350.784 157.680 C 350.956 157.680,351.097 157.485,351.097 157.247 C 351.097 157.008,351.379 156.739,351.723 156.649 C 352.067 156.559,352.444 156.236,352.561 155.931 C 352.678 155.627,353.031 155.119,353.346 154.805 C 354.225 153.925,354.198 148.903,353.313 148.903 C 352.924 148.903,352.672 148.651,352.608 148.197 C 352.546 147.766,352.304 147.508,351.983 147.532 C 351.674 147.555,351.382 147.265,351.272 146.826 C 351.165 146.399,350.853 146.082,350.540 146.082 C 350.240 146.082,349.818 145.799,349.603 145.455 C 349.387 145.110,348.931 144.828,348.589 144.828 C 348.247 144.828,347.792 144.545,347.576 144.201 C 347.361 143.856,346.923 143.574,346.604 143.574 C 346.284 143.574,345.952 143.303,345.866 142.973 C 345.779 142.643,345.334 142.279,344.876 142.165 C 344.418 142.050,342.869 140.769,341.433 139.317 C 339.996 137.865,338.637 136.677,338.413 136.677 C 338.188 136.677,337.930 136.395,337.840 136.050 C 337.750 135.705,337.451 135.423,337.177 135.423 C 336.886 135.423,336.677 135.161,336.677 134.796 C 336.677 134.333,336.468 134.169,335.875 134.169 C 335.434 134.169,335.142 134.057,335.227 133.919 C 335.804 132.986,331.177 132.250,328.306 132.818 M87.670 146.290 C 87.166 146.794,87.441 159.173,87.960 159.372 C 89.037 159.785,220.176 159.570,221.003 159.154 L 221.787 158.759 221.872 152.853 C 221.931 148.762,221.847 146.814,221.599 146.514 C 221.216 146.053,88.130 145.831,87.670 146.290 M243.620 146.629 C 243.091 147.627,243.220 158.536,243.767 159.082 C 244.414 159.730,304.989 159.799,306.270 159.154 L 307.053 158.759 307.053 152.499 L 307.053 146.238 275.482 146.158 C 245.654 146.083,243.895 146.109,243.620 146.629 M62.160 170.846 C 62.069 171.193,61.732 171.473,61.405 171.473 C 61.024 171.473,60.815 171.695,60.815 172.100 C 60.815 172.500,60.606 172.727,60.238 172.727 C 59.921 172.727,59.501 173.080,59.305 173.511 C 59.108 173.942,58.733 174.295,58.471 174.295 C 58.203 174.295,57.994 174.569,57.994 174.922 C 57.994 175.340,57.785 175.549,57.367 175.549 C 56.962 175.549,56.740 175.758,56.740 176.139 C 56.740 176.466,56.460 176.803,56.113 176.893 C 55.768 176.984,55.486 177.282,55.486 177.557 C 55.486 177.832,55.270 178.056,55.006 178.056 C 54.742 178.056,54.442 178.274,54.340 178.540 C 54.238 178.806,53.608 179.303,52.939 179.644 C 52.271 179.985,51.724 180.402,51.724 180.571 C 51.724 180.740,51.521 180.878,51.272 180.878 C 51.023 180.878,50.635 181.134,50.410 181.447 C 50.184 181.760,49.753 182.108,49.451 182.221 C 49.150 182.333,48.903 182.641,48.903 182.906 C 48.903 183.174,48.631 183.386,48.287 183.386 C 47.948 183.386,47.520 183.668,47.335 184.013 C 47.151 184.357,46.793 184.639,46.541 184.639 C 44.652 184.639,43.991 190.158,45.670 191.911 C 46.133 192.394,46.746 192.790,47.032 192.790 C 47.318 192.790,47.807 193.072,48.119 193.417 C 48.431 193.762,49.001 194.044,49.385 194.044 C 49.820 194.044,50.145 194.281,50.248 194.671 C 50.338 195.016,50.630 195.298,50.897 195.298 C 51.164 195.298,51.735 195.650,52.166 196.082 C 52.597 196.513,53.158 196.865,53.413 196.865 C 53.668 196.865,53.966 197.147,54.075 197.492 C 54.185 197.837,54.547 198.119,54.880 198.119 C 55.277 198.119,55.486 198.335,55.486 198.746 C 55.486 199.164,55.695 199.373,56.113 199.373 C 56.531 199.373,56.740 199.582,56.740 200.000 C 56.740 200.418,56.949 200.627,57.367 200.627 C 57.777 200.627,57.994 200.836,57.994 201.233 C 57.994 201.566,58.269 201.926,58.605 202.033 C 58.941 202.139,59.303 202.501,59.409 202.837 C 59.516 203.173,59.876 203.448,60.209 203.448 C 60.606 203.448,60.815 203.665,60.815 204.075 C 60.815 204.465,61.024 204.702,61.367 204.702 C 61.670 204.702,62.094 204.984,62.310 205.329 C 62.954 206.361,68.896 206.267,69.815 205.210 C 70.171 204.800,70.585 204.412,70.733 204.348 C 72.126 203.749,72.862 199.180,71.787 197.806 C 71.450 197.375,71.171 196.705,71.167 196.317 C 71.162 195.823,70.972 195.611,70.533 195.611 C 70.115 195.611,69.906 195.402,69.906 194.984 C 69.906 194.639,69.764 194.357,69.590 194.357 C 69.417 194.357,68.968 194.005,68.593 193.574 C 68.219 193.143,67.726 192.790,67.498 192.790 C 67.271 192.790,67.085 192.581,67.085 192.326 C 67.085 192.070,66.698 191.764,66.226 191.646 C 65.143 191.374,64.739 190.970,64.467 189.887 C 64.348 189.415,64.052 189.028,63.809 189.028 C 62.727 189.028,63.148 187.612,64.670 186.129 C 65.511 185.310,66.268 184.639,66.353 184.639 C 66.438 184.639,67.142 184.005,67.918 183.229 C 68.694 182.453,69.458 181.818,69.617 181.818 C 69.776 181.818,69.906 181.536,69.906 181.191 C 69.906 180.837,70.115 180.564,70.386 180.564 C 70.650 180.564,70.956 180.317,71.066 180.016 C 71.176 179.714,71.595 179.068,71.997 178.581 C 73.109 177.232,73.076 173.136,71.944 171.914 C 71.513 171.449,71.160 170.877,71.160 170.644 C 71.160 169.849,62.369 170.047,62.160 170.846 M88.166 179.530 C 87.462 179.667,87.461 179.677,87.461 186.161 L 87.461 192.655 88.371 193.193 C 89.656 193.952,165.483 194.033,166.240 193.276 C 166.490 193.026,167.100 192.767,167.595 192.701 L 168.495 192.581 168.495 186.193 L 168.495 179.806 167.398 179.572 C 166.259 179.329,89.410 179.289,88.166 179.530 M180.408 179.538 C 179.399 179.793,179.352 180.087,179.324 186.364 L 179.298 192.350 180.232 193.040 L 181.166 193.730 242.708 193.730 C 310.737 193.730,304.683 193.908,306.493 191.857 C 307.433 190.790,307.602 180.653,306.692 179.897 C 306.177 179.470,182.076 179.117,180.408 179.538 M264.107 204.203 C 263.675 204.635,263.323 205.351,263.323 205.798 C 263.323 206.244,263.030 207.004,262.673 207.488 C 261.947 208.469,262.083 210.563,262.892 210.874 C 263.155 210.974,263.323 211.512,263.323 212.252 C 263.323 213.200,263.494 213.577,264.107 213.979 C 264.538 214.261,264.890 214.688,264.890 214.926 C 264.890 215.165,265.172 215.361,265.517 215.361 C 265.935 215.361,266.144 215.569,266.144 215.987 C 266.144 216.405,266.353 216.614,266.771 216.614 C 267.205 216.614,267.398 216.823,267.398 217.294 C 267.398 217.667,267.490 217.881,267.601 217.770 C 267.819 217.552,268.966 218.728,268.966 219.170 C 268.966 219.316,269.071 219.419,269.201 219.399 C 269.857 219.295,270.219 219.486,270.219 219.935 C 270.219 220.210,270.502 220.509,270.846 220.599 C 271.191 220.689,271.473 220.965,271.473 221.213 C 271.473 221.460,271.897 221.810,272.414 221.991 C 273.592 222.401,273.692 223.414,272.582 223.693 C 272.157 223.800,271.724 224.155,271.620 224.483 C 271.516 224.810,271.263 225.078,271.057 225.078 C 270.852 225.078,270.508 225.361,270.292 225.705 C 270.077 226.050,269.707 226.332,269.470 226.332 C 269.233 226.332,268.965 226.614,268.875 226.959 C 268.756 227.413,268.447 227.586,267.759 227.586 C 267.198 227.586,266.638 227.820,266.397 228.155 C 266.172 228.469,265.741 228.817,265.439 228.929 C 265.137 229.042,264.890 229.350,264.890 229.614 C 264.890 229.892,264.614 230.094,264.234 230.094 C 263.845 230.094,263.512 230.345,263.416 230.711 C 263.328 231.050,262.988 231.412,262.662 231.515 C 262.336 231.619,262.069 231.976,262.069 232.310 C 262.069 232.706,261.853 232.915,261.442 232.915 C 260.857 232.915,260.815 233.124,260.815 236.025 L 260.815 239.135 262.250 240.571 L 263.686 242.006 266.950 242.006 C 269.875 242.006,270.255 241.941,270.606 241.379 C 270.821 241.034,271.250 240.752,271.559 240.752 C 271.867 240.752,272.205 240.530,272.310 240.258 C 272.414 239.986,272.833 239.637,273.240 239.482 C 273.648 239.327,273.981 238.985,273.981 238.722 C 273.981 238.460,274.249 238.245,274.575 238.245 C 274.902 238.245,275.502 237.894,275.908 237.466 C 276.314 237.038,276.906 236.686,277.224 236.683 C 277.542 236.680,277.875 236.395,277.966 236.050 C 278.056 235.703,278.393 235.423,278.720 235.423 C 279.045 235.423,279.579 235.155,279.906 234.827 C 280.234 234.499,280.798 234.137,281.160 234.022 C 281.522 233.908,281.818 233.634,281.818 233.415 C 281.818 233.195,282.171 232.855,282.602 232.659 C 283.033 232.463,283.386 232.087,283.386 231.825 C 283.386 231.557,283.660 231.348,284.013 231.348 C 284.431 231.348,284.639 231.139,284.639 230.721 C 284.639 230.303,284.848 230.094,285.266 230.094 C 285.684 230.094,285.893 229.885,285.893 229.467 C 285.893 229.068,286.102 228.840,286.469 228.840 C 287.536 228.840,289.969 226.658,289.969 225.700 C 289.969 225.102,290.160 224.788,290.596 224.674 C 291.436 224.454,291.554 220.170,290.728 219.853 C 290.457 219.749,290.107 219.330,289.952 218.923 C 289.797 218.515,289.465 218.182,289.214 218.182 C 288.963 218.182,288.667 217.900,288.558 217.555 C 288.436 217.172,288.084 216.928,287.651 216.928 C 287.262 216.928,286.616 216.580,286.216 216.154 C 285.816 215.728,285.384 215.445,285.255 215.524 C 285.127 215.604,284.791 215.317,284.510 214.888 C 284.228 214.458,283.847 214.107,283.663 214.107 C 283.479 214.107,282.969 213.824,282.531 213.480 C 282.092 213.135,281.487 212.853,281.186 212.853 C 280.884 212.853,280.564 212.571,280.473 212.226 C 280.383 211.881,280.085 211.599,279.810 211.599 C 279.535 211.599,279.310 211.436,279.310 211.238 C 279.310 211.040,278.676 210.278,277.900 209.545 C 277.124 208.812,276.489 208.058,276.489 207.868 C 276.489 207.679,276.223 207.524,275.899 207.524 C 275.572 207.524,275.235 207.244,275.144 206.897 C 275.046 206.521,274.717 206.270,274.324 206.270 C 273.963 206.270,273.667 206.164,273.666 206.034 C 273.665 205.905,273.195 205.288,272.620 204.662 L 271.575 203.525 268.234 203.471 C 265.052 203.421,264.854 203.456,264.107 204.203 M87.670 210.240 C 87.169 210.741,87.440 223.123,87.957 223.321 C 88.992 223.718,245.306 223.534,245.705 223.135 C 246.103 222.738,246.268 211.509,245.891 210.527 C 245.693 210.010,88.186 209.724,87.670 210.240 " stroke="none" fill="#8ce4ec" fill-rule="evenodd"></path><path id="path1" d="" stroke="none" fill="#90e4ec" fill-rule="evenodd"></path><path id="path2" d="" stroke="none" fill="#90e4ec" fill-rule="evenodd"></path><path id="path3" d="" stroke="none" fill="#90e4ec" fill-rule="evenodd"></path><path id="path4" d="" stroke="none" fill="#90e4ec" fill-rule="evenodd"></path></g></svg>